<svg xmlns="http://www.w3.org/2000/svg" width="512" height="512" viewBox="0 0 512 512" role="img" aria-label="MathQuest">
  <defs>
    <linearGradient id="g" x1="0" y1="0" x2="1" y2="1">
      <stop offset="0" stop-color="#22c55e"/>
      <stop offset="1" stop-color="#60a5fa"/>
    </linearGradient>
  </defs>
  <rect width="512" height="512" rx="112" fill="url(#g)"/>
  <g fill="#ffffff" opacity="0.95">
    <path d="M160 170c0-16.6 13.4-30 30-30h132c16.6 0 30 13.4 30 30v172c0 16.6-13.4 30-30 30H190c-16.6 0-30-13.4-30-30V170z" opacity="0.18"/>
    <path d="M204 196h104a12 12 0 0 1 0 24H204a12 12 0 0 1 0-24zm0 60h104a12 12 0 0 1 0 24H204a12 12 0 0 1 0-24zm0 60h64a12 12 0 0 1 0 24h-64a12 12 0 0 1 0-24z"/>
    <circle cx="336" cy="328" r="18"/>
  </g>
</svg>

